<svg width="192" height="81" viewBox="0 0 192 81" fill="none" xmlns="http://www.w3.org/2000/svg">
<path d="M25.1267 69.7929C24.3021 70.1487 23.5952 70.386 22.8884 70.6232C18.2938 71.6907 14.2883 70.6232 10.7541 67.5393C8.63354 65.6416 7.33765 63.1507 6.86641 60.3041C6.15956 56.1527 7.21984 52.3572 10.0472 49.1547C12.1678 46.7825 14.8774 45.3592 18.176 44.8847C21.8281 44.4103 25.1267 45.4778 27.9541 47.7314C28.0719 47.7314 28.0719 47.85 28.1897 47.85C28.3075 47.9686 28.4254 48.0872 28.661 47.85C28.8966 47.6128 29.3678 47.6128 29.7213 47.3756C29.8391 47.3756 29.9569 47.3756 30.0747 47.4942C30.8993 48.2058 31.8418 49.0361 32.6665 49.7478C32.7843 49.8664 32.9021 49.985 32.9021 50.2222C32.9021 50.3408 32.9021 50.3408 32.9021 50.4594C32.9021 57.3388 32.9021 64.2182 32.9021 71.0976C32.9021 74.1815 32.9021 77.2654 32.9021 80.3492C32.9021 80.9423 32.9021 80.8237 32.4308 80.8237C30.3103 80.8237 28.0719 80.8237 25.9514 80.8237C25.8336 80.8237 25.7158 80.8237 25.7158 80.8237C25.598 80.8237 25.4801 80.7051 25.4801 80.5865C25.4801 80.4678 25.4801 80.3492 25.4801 80.112C25.4801 76.7909 25.4801 73.4698 25.598 70.1487C25.1267 70.1487 25.1267 69.9115 25.1267 69.7929ZM13.6993 57.6947C13.6993 59.711 14.2883 61.3716 15.4664 62.6763C16.4089 63.8624 17.7048 64.5741 19.2363 64.5741C21.239 64.6927 22.8884 63.8624 24.0664 62.2019C25.2445 60.6599 25.598 58.8808 25.3623 56.8644C25.1267 55.3225 24.6555 54.0177 23.5952 52.8316C21.4747 50.4594 18.0582 50.3408 15.8199 52.5944C14.2883 54.1363 13.6993 55.9155 13.6993 57.6947Z" fill="#00BBD2"/>
<path d="M167.321 59.1177C167.439 59.948 167.792 60.7782 168.381 61.3713C169.559 62.676 170.973 63.3877 172.622 63.5063C173.918 63.6249 175.096 63.5063 176.274 63.0318C177.099 62.676 177.806 62.2015 178.395 61.4899C178.631 61.2527 178.748 61.2527 179.102 61.2527C180.633 61.6085 182.283 61.8457 183.814 62.0829H183.932C184.285 62.2015 184.285 62.2015 184.168 62.5574C183.579 63.8621 182.872 65.0482 181.811 66.1157C180.044 68.0135 177.924 69.3182 175.45 69.7926C171.798 70.5043 168.499 69.7926 165.672 67.4204C163.08 65.404 161.548 62.7946 161.077 59.5921C160.37 55.678 161.313 52.1197 163.787 49.0358C165.789 46.545 168.263 45.1217 171.326 44.6472C175.332 44.0542 178.866 45.3589 181.694 48.2055C183.696 50.2219 184.874 52.7127 185.228 55.5594C185.346 56.5083 185.346 57.4571 185.346 58.406C185.346 58.7618 185.346 58.8805 184.874 58.8805C182.518 58.8805 180.162 58.8805 177.806 58.8805C174.507 58.9991 171.209 58.8805 167.792 58.8805C167.557 59.1177 167.439 59.1177 167.321 59.1177ZM172.976 54.8477C174.625 54.8477 176.274 54.8477 177.924 54.8477C178.631 54.8477 178.748 54.8477 178.631 54.0174C178.395 52.5941 177.57 51.408 176.392 50.6963C174.625 49.5102 172.74 49.3916 170.737 50.1033C169.088 50.6963 168.028 51.8825 167.439 53.6616C167.321 53.8988 167.321 54.2547 167.321 54.6105C167.321 54.7291 167.321 54.8477 167.557 54.8477C167.674 54.8477 167.792 54.8477 167.91 54.8477C169.677 54.8477 171.326 54.8477 172.976 54.8477Z" fill="#00BBD2"/>
<path d="M38.7926 52.4753C38.7926 50.1031 38.7926 47.6122 38.7926 45.24C38.7926 45.1214 38.7926 45.0028 38.7926 44.8842C38.7926 44.647 38.9104 44.647 39.0282 44.647C39.146 44.647 39.146 44.647 39.2638 44.647C41.2665 44.647 43.3871 44.647 45.3898 44.647C45.5076 44.647 45.6255 44.647 45.6255 44.647C45.7433 44.647 45.7433 44.7656 45.7433 44.8842C45.7433 45.0028 45.7433 45.1214 45.7433 45.3586C45.7433 49.9844 45.7433 54.4916 45.7433 59.1174C45.7433 60.0663 45.8611 61.1338 46.2145 62.0827C46.8035 63.506 47.746 64.4549 49.1597 64.9293C50.4556 65.2852 51.7515 65.4038 52.9296 65.0479C54.8145 64.5735 55.8748 63.3874 56.346 61.6083C56.5816 60.778 56.6994 59.9477 56.6994 59.1174C56.6994 54.4916 56.6994 49.9844 56.6994 45.3586C56.6994 44.7656 56.6994 44.7656 57.2885 44.7656C59.1734 44.7656 61.0584 44.7656 62.9433 44.7656C63.4145 44.7656 63.4145 44.7656 63.4145 45.24C63.4145 49.8658 63.4145 54.6102 63.4145 59.236C63.4145 60.4221 63.2967 61.7269 62.9433 62.913C62.4721 64.6921 61.5296 66.1154 60.1159 67.3015C58.3488 68.8435 56.2282 69.6738 53.872 70.0296C50.9268 70.3854 48.0994 70.2668 45.3898 69.1993C43.7405 68.6063 42.3268 67.776 41.1487 66.4713C39.8528 65.2852 39.146 63.7432 38.7926 61.9641C38.5569 60.8966 38.5569 59.9477 38.5569 58.8802C38.7926 56.8638 38.7926 54.6102 38.7926 52.4753Z" fill="#00BBD2"/>
<path d="M144.937 47.8493C144.937 42.8677 144.937 37.8861 144.937 32.7858C144.937 32.6672 144.937 32.5486 144.937 32.43C144.937 31.9556 144.937 31.9556 145.409 31.9556C147.647 31.9556 150.003 31.9556 152.242 31.9556C152.831 31.9556 152.831 31.9556 152.831 32.5486C152.831 41.563 152.831 50.696 152.831 59.7104C152.831 60.3034 152.831 60.8965 152.831 61.4895C152.831 62.557 153.302 63.1501 154.244 63.6245C154.716 63.8617 155.305 63.9803 155.894 63.8617C156.365 63.8617 156.365 63.8617 156.365 64.2176C156.365 64.9292 156.365 65.5223 156.365 66.2339C156.365 66.4712 156.365 66.5898 156.247 66.7084C155.894 67.7759 155.658 68.7248 155.305 69.7923C155.187 70.1481 155.187 70.1481 154.716 70.1481C153.655 70.1481 152.713 70.0295 151.653 69.7923C150.357 69.555 149.296 68.962 148.236 68.1317C147.058 67.1828 146.116 66.1153 145.409 64.692C145.173 64.099 144.937 63.3873 144.937 62.6756C144.937 57.8126 144.937 52.831 144.937 47.8493Z" fill="#00BBD2"/>
<path d="M69.8937 57.4569C69.8937 53.4241 69.8937 49.3914 69.8937 45.3586C69.8937 45.24 69.8937 45.1214 69.8937 45.1214C69.8937 44.647 69.8937 44.647 70.2471 44.647C72.3677 44.647 74.4882 44.647 76.6088 44.647C77.08 44.647 77.08 44.647 77.08 45.1214C77.08 50.8147 77.08 56.3894 77.08 62.0827C77.08 64.6921 77.08 67.1829 77.08 69.7924C77.08 69.911 77.08 70.0296 77.08 70.1482C77.08 70.3854 76.9622 70.3854 76.8444 70.3854C76.7266 70.3854 76.6088 70.3854 76.6088 70.3854C74.4882 70.3854 72.4855 70.3854 70.3649 70.3854C70.2471 70.3854 70.1293 70.3854 70.1293 70.3854C70.0115 70.3854 69.8937 70.2668 69.8937 70.1482C69.8937 70.0296 69.8937 69.911 69.8937 69.7924C69.8937 65.641 69.8937 61.6082 69.8937 57.4569Z" fill="#00BBD2"/>
<path d="M77.1981 37.8865C77.1981 39.9028 75.5487 41.5634 73.4282 41.5634C71.4254 41.5634 69.7761 39.7842 69.7761 37.7679C69.7761 35.6329 71.6611 33.9723 73.6638 34.0909C75.6665 34.2096 77.1981 35.8701 77.1981 37.8865Z" fill="#00BBD2"/>
<path d="M118.785 66.7084C118.667 66.9456 118.667 67.1828 118.667 67.3014C118.667 68.1317 118.667 68.962 118.667 69.9109C118.667 70.2667 118.667 70.3853 118.313 70.3853C116.9 70.3853 115.486 70.3853 114.19 70.3853C113.837 70.3853 113.837 70.3853 113.837 70.0295C113.837 69.9109 113.837 69.7923 113.837 69.7923C113.837 57.4568 113.837 45.0027 113.837 32.6672C113.837 32.5486 113.837 32.5486 113.837 32.43C113.837 31.9556 113.837 31.9556 114.308 31.9556C116.429 31.9556 118.431 31.9556 120.552 31.9556C120.67 31.9556 120.67 31.9556 120.787 31.9556C120.905 31.9556 121.023 32.0742 121.023 32.1928C121.023 32.3114 121.023 32.43 121.023 32.5486C121.023 36.5814 121.023 40.6141 121.023 44.6469C121.023 44.8841 121.023 45.2399 121.023 45.4771C124.675 43.698 128.327 43.4608 131.979 45.0027C134.571 46.0702 136.692 47.968 138.105 50.4588C141.05 55.4404 140.226 61.8454 136.103 65.9967C133.746 68.3689 130.919 69.555 127.62 69.7923C124.322 69.7923 121.376 68.8434 118.785 66.7084ZM132.804 56.3893C132.804 55.9149 132.804 55.559 132.686 55.0846C132.45 53.424 131.744 52.0007 130.448 50.8146C129.152 49.7471 127.62 49.2727 125.971 49.6285C124.557 49.9843 123.379 50.8146 122.555 52.0007C121.494 53.5426 121.141 55.3218 121.259 57.2196C121.494 58.9987 122.201 60.6593 123.615 61.8454C124.439 62.6756 125.5 63.0315 126.678 63.1501C128.445 63.2687 129.976 62.557 131.037 61.1337C132.215 59.7104 132.686 58.1684 132.804 56.3893Z" fill="#00BBD2"/>
<path d="M90.5106 45.2402C93.6914 43.6983 96.9901 43.3425 100.407 44.41C103.116 45.2402 105.354 46.9008 107.004 49.273C110.42 54.136 110.067 60.6596 106.179 65.0482C103.941 67.6576 100.996 69.1995 97.5791 69.4367C94.1627 69.674 91.0997 68.7251 88.3901 66.5901C88.2723 66.8273 88.2723 66.9459 88.2723 67.0645C88.2723 68.0134 88.2723 68.8437 88.2723 69.7926C88.2723 70.1484 88.2723 70.1484 87.9188 70.1484C86.5051 70.1484 85.0914 70.1484 83.6777 70.1484C83.4421 70.1484 83.3243 70.0298 83.3243 69.7926C83.3243 69.674 83.3243 69.5554 83.3243 69.4367C83.3243 56.9827 83.3243 44.6472 83.3243 32.1931C83.3243 31.4814 83.2065 31.4814 84.0312 31.4814C86.0339 31.4814 87.9188 31.4814 89.9216 31.4814C90.0394 31.4814 90.1572 31.4814 90.275 31.4814C90.3928 31.4814 90.5106 31.6001 90.5106 31.7187C90.5106 31.8373 90.5106 31.9559 90.5106 32.0745C90.5106 36.1072 90.5106 40.0214 90.5106 44.0541C90.5106 44.6472 90.3928 44.8844 90.5106 45.2402ZM96.9901 49.5102C96.7545 49.5102 96.5188 49.5102 96.2832 49.5102C96.1654 49.5102 96.1654 49.5102 96.0476 49.5102C94.5161 49.7474 93.338 50.5777 92.3956 51.8824C91.4531 53.3057 90.9819 54.8477 91.0997 56.5082C91.0997 58.406 91.8065 59.9479 92.9846 61.3712C93.9271 62.4387 95.223 63.0318 96.6367 63.0318C98.4038 63.0318 99.8175 62.3201 100.996 60.8968C102.174 59.3549 102.645 57.5757 102.527 55.5593C102.409 54.136 101.938 52.8313 101.113 51.7638C100.171 50.4591 98.7572 49.6288 96.9901 49.5102Z" fill="#00BBD2"/>
<path fill-rule="evenodd" clip-rule="evenodd" d="M113.246 0.833008L170.008 27.3487L167.698 32.2931L113.249 6.85745L58.9168 32.2921L56.603 27.3497L113.246 0.833008Z" fill="#00BBD2"/>
</svg>
